<svg width='100' height='100' viewBox='0 0 30 30' xmlns='http://www.w3.org/2000/svg' xmlns:xlink='http://www.w3.org/1999/xlink'><rect width='24' height='24' stroke='none' fill='#000000' opacity='0'/>


<g transform="matrix(0.2 0 0 0.2 12 12)" >
<g style="" >
<g transform="matrix(1 0 0 1 27 -37)" >
<path style="stroke: none; stroke-width: 1; stroke-dasharray: none; stroke-linecap: butt; stroke-dashoffset: 0; stroke-linejoin: miter; stroke-miterlimit: 4; fill: rgb(241,188,25); fill-rule: nonzero; opacity: 1;" transform=" translate(-77, -13)" d="M 77 12 C 76.44771525016921 12 76 12.447715250169207 76 13 C 76 13.552284749830793 76.44771525016921 14 77 14 C 77.55228474983079 14 78 13.552284749830793 78 13 C 78 12.447715250169207 77.55228474983079 12 77 12 Z" stroke-linecap="round" />
</g>
<g transform="matrix(1 0 0 1 0 0)" >
<path style="stroke: none; stroke-width: 1; stroke-dasharray: none; stroke-linecap: butt; stroke-dashoffset: 0; stroke-linejoin: miter; stroke-miterlimit: 4; fill: rgb(230,237,183); fill-rule: nonzero; opacity: 1;" transform=" translate(-50, -50)" d="M 50 13 C 29.565464256260643 13 13 29.565464256260643 13 50 C 13 70.43453574373936 29.565464256260643 87 50 87 C 70.43453574373936 87 87 70.43453574373936 87 50 C 87 29.56546425626064 70.43453574373936 13 50 13 Z" stroke-linecap="round" />
</g>
<g transform="matrix(1 0 0 1 33 -35)" >
<path style="stroke: none; stroke-width: 1; stroke-dasharray: none; stroke-linecap: butt; stroke-dashoffset: 0; stroke-linejoin: miter; stroke-miterlimit: 4; fill: rgb(241,188,25); fill-rule: nonzero; opacity: 1;" transform=" translate(-83, -15)" d="M 83 11 C 80.79086100067683 11 79 12.790861000676827 79 15 C 79 17.209138999323173 80.79086100067683 19 83 19 C 85.20913899932317 19 87 17.209138999323173 87 15 C 87 12.790861000676827 85.20913899932317 11 83 11 Z" stroke-linecap="round" />
</g>
<g transform="matrix(1 0 0 1 37 -26)" >
<path style="stroke: none; stroke-width: 1; stroke-dasharray: none; stroke-linecap: butt; stroke-dashoffset: 0; stroke-linejoin: miter; stroke-miterlimit: 4; fill: rgb(136,174,69); fill-rule: nonzero; opacity: 1;" transform=" translate(-87, -24)" d="M 87 22 C 85.8954305003384 22 85 22.895430500338414 85 24 C 85 25.104569499661586 85.8954305003384 26 87 26 C 88.1045694996616 26 89 25.104569499661586 89 24 C 89 22.895430500338414 88.1045694996616 22 87 22 Z" stroke-linecap="round" />
</g>
<g transform="matrix(1 0 0 1 -3 18.5)" >
<path style="stroke: none; stroke-width: 1; stroke-dasharray: none; stroke-linecap: butt; stroke-dashoffset: 0; stroke-linejoin: miter; stroke-miterlimit: 4; fill: rgb(251,205,89); fill-rule: nonzero; opacity: 1;" transform=" translate(-47, -68.5)" d="M 81 74 C 79.8954305003384 74 79 74.8954305003384 79 76 C 79 77.1045694996616 79.8954305003384 78 81 78 C 82.1045694996616 78 83 77.1045694996616 83 76 C 83 74.8954305003384 82.1045694996616 74 81 74 z M 15 59 C 12.790861000676827 59 11 60.79086100067683 11 63 C 11 65.20913899932317 12.790861000676827 67 15 67 C 17.209138999323173 67 19 65.20913899932317 19 63 C 19 60.79086100067683 17.209138999323173 59 15 59 z" stroke-linecap="round" />
</g>
<g transform="matrix(1 0 0 1 -25 37)" >
<path style="stroke: none; stroke-width: 1; stroke-dasharray: none; stroke-linecap: butt; stroke-dashoffset: 0; stroke-linejoin: miter; stroke-miterlimit: 4; fill: rgb(136,174,69); fill-rule: nonzero; opacity: 1;" transform=" translate(-25, -87)" d="M 25 85 C 23.895430500338414 85 23 85.8954305003384 23 87 C 23 88.1045694996616 23.895430500338414 89 25 89 C 26.104569499661586 89 27 88.1045694996616 27 87 C 27 85.8954305003384 26.104569499661586 85 25 85 Z" stroke-linecap="round" />
</g>
<g transform="matrix(1 0 0 1 -1.5 -7)" >
<path style="stroke: none; stroke-width: 1; stroke-dasharray: none; stroke-linecap: butt; stroke-dashoffset: 0; stroke-linejoin: miter; stroke-miterlimit: 4; fill: rgb(255,255,255); fill-rule: nonzero; opacity: 1;" transform=" translate(-48.5, -43)" d="M 18.5 49 C 17.119288125423015 49 16 50.11928812542302 16 51.5 C 16 52.88071187457698 17.119288125423015 54 18.5 54 C 19.880711874576985 54 21 52.88071187457698 21 51.5 C 21 50.11928812542302 19.880711874576985 49 18.5 49 z M 79.5 32 C 78.67157287525382 32 78 32.67157287525381 78 33.5 C 78 34.32842712474619 78.67157287525382 35 79.5 35 C 80.32842712474618 35 81 34.32842712474619 81 33.5 C 81 32.67157287525381 80.32842712474618 32 79.5 32 z" stroke-linecap="round" />
</g>
<g transform="matrix(1 0 0 1 -0.01 7.5)" >
<path style="stroke: none; stroke-width: 1; stroke-dasharray: none; stroke-linecap: butt; stroke-dashoffset: 0; stroke-linejoin: miter; stroke-miterlimit: 4; fill: rgb(189,151,124); fill-rule: nonzero; opacity: 1;" transform=" translate(-49.99, -57.5)" d="M 72.25 40.761 L 72.25 42.398 L 72.25 69.18 C 72.25 71.96700000000001 70.019 74.248 67.292 74.248 L 32.685 74.248 C 29.958000000000002 74.248 27.727000000000004 71.967 27.727000000000004 69.18 L 27.727000000000004 42.347 L 27.727000000000004 40.761" stroke-linecap="round" />
</g>
<g transform="matrix(1 0 0 1 -0.01 7.85)" >
<path style="stroke: none; stroke-width: 1; stroke-dasharray: none; stroke-linecap: butt; stroke-dashoffset: 0; stroke-linejoin: miter; stroke-miterlimit: 4; fill: rgb(71,43,41); fill-rule: nonzero; opacity: 1;" transform=" translate(-49.99, -57.85)" d="M 67.292 74.947 L 32.685 74.947 C 29.565 74.947 27.027 72.35900000000001 27.027 69.179 L 27.027 40.761 L 28.427 40.761 L 28.427 69.18 C 28.427 71.58800000000001 30.337 73.54700000000001 32.684 73.54700000000001 L 67.292 73.54700000000001 C 69.64 73.54700000000001 71.549 71.58800000000001 71.549 69.18 L 71.549 40.761 L 72.94900000000001 40.761 L 72.94900000000001 69.18 C 72.95 72.359 70.412 74.947 67.292 74.947 z" stroke-linecap="round" />
</g>
<g transform="matrix(1 0 0 1 14.03 -2.59)" >
<path style="stroke: none; stroke-width: 1; stroke-dasharray: none; stroke-linecap: butt; stroke-dashoffset: 0; stroke-linejoin: miter; stroke-miterlimit: 4; fill: rgb(238,62,84); fill-rule: nonzero; opacity: 1;" transform=" translate(-64.03, -47.41)" d="M 61.768 44.199 L 61.768 50.617 L 64.034 48.73 L 66.3 50.617 L 66.3 44.199 z" stroke-linecap="round" />
</g>
<g transform="matrix(1 0 0 1 14 -2.18)" >
<path style="stroke: none; stroke-width: 1; stroke-dasharray: none; stroke-linecap: butt; stroke-dashoffset: 0; stroke-linejoin: miter; stroke-miterlimit: 4; fill: rgb(71,43,41); fill-rule: nonzero; opacity: 1;" transform=" translate(-64, -47.81)" d="M 67 51.63 L 64.03 49.357 L 61 51.613 L 61 44 L 67 44 L 67 51.63 z M 62 45 L 62 49.621 L 64.038 48.102000000000004 L 66 49.604 L 66 45 L 62 45 z" stroke-linecap="round" />
</g>
<g transform="matrix(1 0 0 1 0 -12.5)" >
<path style="stroke: none; stroke-width: 1; stroke-dasharray: none; stroke-linecap: butt; stroke-dashoffset: 0; stroke-linejoin: miter; stroke-miterlimit: 4; fill: rgb(246,204,164); fill-rule: nonzero; opacity: 1;" transform=" translate(-50, -37.5)" d="M 29.3 44.3 C 27.315 44.3 25.7 42.452999999999996 25.7 40.184 L 25.7 30.7 L 74.3 30.7 L 74.3 40.183 C 74.3 42.453 72.685 44.299 70.7 44.299 L 29.3 44.299 z" stroke-linecap="round" />
</g>
<g transform="matrix(1 0 0 1 0 -12.5)" >
<path style="stroke: none; stroke-width: 1; stroke-dasharray: none; stroke-linecap: butt; stroke-dashoffset: 0; stroke-linejoin: miter; stroke-miterlimit: 4; fill: rgb(71,43,41); fill-rule: nonzero; opacity: 1;" transform=" translate(-50, -37.5)" d="M 73.6 31.4 L 73.6 40.184 C 73.6 42.068 72.29899999999999 43.601 70.69999999999999 43.601 L 29.3 43.601 C 27.701 43.601 26.400000000000002 42.068 26.400000000000002 40.184 L 26.400000000000002 31.4 L 73.6 31.4 M 74.748 30 L 25.412 30 C 25.185 30 25 30.208 25 30.461 L 25 40.183 C 25 42.833 26.935 45 29.3 45 L 70.7 45 C 73.065 45 75 42.833 75 40.184 L 75 30.281999999999996 C 75 30.126 74.887 30 74.748 30 L 74.748 30 z" stroke-linecap="round" />
</g>
<g transform="matrix(1 0 0 1 14.03 -3.37)" >
<path style="stroke: none; stroke-width: 1; stroke-dasharray: none; stroke-linecap: butt; stroke-dashoffset: 0; stroke-linejoin: miter; stroke-miterlimit: 4; fill: rgb(71,43,41); fill-rule: nonzero; opacity: 1;" transform=" translate(-64.03, -46.63)" d="M 64.035 48.875 C 63.901999999999994 48.875 63.793 48.766 63.793 48.633 L 63.793 44.634 C 63.793 44.501 63.902 44.392 64.035 44.392 C 64.16799999999999 44.392 64.277 44.501000000000005 64.277 44.634 L 64.277 48.633 C 64.277 48.766 64.168 48.875 64.035 48.875 z" stroke-linecap="round" />
</g>
<g transform="matrix(1 0 0 1 15.09 -1.86)" >
<path style="stroke: none; stroke-width: 1; stroke-dasharray: none; stroke-linecap: butt; stroke-dashoffset: 0; stroke-linejoin: miter; stroke-miterlimit: 4; fill: rgb(71,43,41); fill-rule: nonzero; opacity: 1;" transform=" translate(-65.09, -48.14)" d="M 66.008 49.043 C 65.978 49.043 65.94699999999999 49.032 65.922 49.012 L 64.091 47.478 C 64.03399999999999 47.431000000000004 64.026 47.346000000000004 64.074 47.289 C 64.12 47.231 64.206 47.226 64.26299999999999 47.272 L 66.094 48.806 C 66.151 48.852999999999994 66.15899999999999 48.937999999999995 66.11099999999999 48.995 C 66.085 49.025 66.047 49.043 66.008 49.043 z" stroke-linecap="round" />
</g>
<g transform="matrix(1 0 0 1 15.09 -3.23)" >
<path style="stroke: none; stroke-width: 1; stroke-dasharray: none; stroke-linecap: butt; stroke-dashoffset: 0; stroke-linejoin: miter; stroke-miterlimit: 4; fill: rgb(71,43,41); fill-rule: nonzero; opacity: 1;" transform=" translate(-65.09, -46.77)" d="M 66.008 47.667 C 65.978 47.667 65.94699999999999 47.656 65.922 47.636 L 64.091 46.102000000000004 C 64.03399999999999 46.05500000000001 64.026 45.970000000000006 64.074 45.913000000000004 C 64.12 45.856 64.206 45.85 64.26299999999999 45.896 L 66.094 47.43 C 66.151 47.477 66.15899999999999 47.562 66.11099999999999 47.619 C 66.085 47.651 66.047 47.667 66.008 47.667 z" stroke-linecap="round" />
</g>
<g transform="matrix(1 0 0 1 0 10.5)" >
<path style="stroke: none; stroke-width: 1; stroke-dasharray: none; stroke-linecap: butt; stroke-dashoffset: 0; stroke-linejoin: miter; stroke-miterlimit: 4; fill: rgb(71,43,41); fill-rule: nonzero; opacity: 1;" transform=" translate(-50, -60.5)" d="M 65.188 71 L 34.813 71 C 32.71 71 31 69.29 31 67.188 L 31 50.5 C 31 50.224 31.224 50 31.5 50 C 31.776 50 32 50.224 32 50.5 L 32 67.188 C 32 68.738 33.262 70 34.813 70 L 65.188 70 C 66.738 70 68 68.738 68 67.188 L 68 62.5 C 68 62.224 68.224 62 68.5 62 C 68.776 62 69 62.224 69 62.5 L 69 67.188 C 69 69.29 67.29 71 65.188 71 z" stroke-linecap="round" />
</g>
<g transform="matrix(1 0 0 1 15.33 -4.3)" >
<path style="stroke: none; stroke-width: 1; stroke-dasharray: none; stroke-linecap: butt; stroke-dashoffset: 0; stroke-linejoin: miter; stroke-miterlimit: 4; fill: rgb(71,43,41); fill-rule: nonzero; opacity: 1;" transform=" translate(-65.33, -45.7)" d="M 66.241 46.598 C 66.211 46.598 66.17999999999999 46.586999999999996 66.155 46.567 L 64.324 45.033 C 64.267 44.986000000000004 64.259 44.901 64.307 44.844 C 64.354 44.787 64.43900000000001 44.779 64.496 44.827 L 66.327 46.361 C 66.384 46.407999999999994 66.392 46.492999999999995 66.344 46.55 C 66.318 46.581 66.279 46.598 66.241 46.598 z" stroke-linecap="round" />
</g>
<g transform="matrix(1 0 0 1 -0.5 15.26)" >
<path style="stroke: none; stroke-width: 1; stroke-dasharray: none; stroke-linecap: butt; stroke-dashoffset: 0; stroke-linejoin: miter; stroke-miterlimit: 4; fill: rgb(71,43,41); fill-rule: nonzero; opacity: 1;" transform=" translate(-49.5, -65.26)" d="M 49.5 70.75 C 49.224 70.75 49 70.526 49 70.25 L 49 60.272 C 49 59.995999999999995 49.224 59.772 49.5 59.772 C 49.776 59.772 50 59.995999999999995 50 60.272 L 50 70.25 C 50 70.526 49.776 70.75 49.5 70.75 z" stroke-linecap="round" />
</g>
<g transform="matrix(1 0 0 1 -0.5 -1.38)" >
<path style="stroke: none; stroke-width: 1; stroke-dasharray: none; stroke-linecap: butt; stroke-dashoffset: 0; stroke-linejoin: miter; stroke-miterlimit: 4; fill: rgb(71,43,41); fill-rule: nonzero; opacity: 1;" transform=" translate(-49.5, -48.63)" d="M 49.5 50.5 C 49.224 50.5 49 50.276 49 50 L 49 47.25 C 49 46.974 49.224 46.75 49.5 46.75 C 49.776 46.75 50 46.974 50 47.25 L 50 50 C 50 50.276 49.777 50.5 49.5 50.5 z" stroke-linecap="round" />
</g>
<g transform="matrix(1 0 0 1 18.5 8)" >
<path style="stroke: none; stroke-width: 1; stroke-dasharray: none; stroke-linecap: butt; stroke-dashoffset: 0; stroke-linejoin: miter; stroke-miterlimit: 4; fill: rgb(71,43,41); fill-rule: nonzero; opacity: 1;" transform=" translate(-68.5, -58)" d="M 68.5 60 C 68.224 60 68 59.776 68 59.5 L 68 56.5 C 68 56.224 68.224 56 68.5 56 C 68.776 56 69 56.224 69 56.5 L 69 59.5 C 69 59.776 68.776 60 68.5 60 z" stroke-linecap="round" />
</g>
<g transform="matrix(1 0 0 1 -0.87 2.59)" >
<path style="stroke: none; stroke-width: 1; stroke-dasharray: none; stroke-linecap: butt; stroke-dashoffset: 0; stroke-linejoin: miter; stroke-miterlimit: 4; fill: rgb(253,252,238); fill-rule: nonzero; opacity: 1;" transform=" translate(-49.13, -52.59)" d="M 54.022 54.625 L 44.229 54.625 C 43.278999999999996 54.625 42.501 53.712 42.501 52.594 L 42.501 52.594 C 42.501 51.477000000000004 43.278 50.563 44.229 50.563 L 54.022 50.563 C 54.972 50.563 55.75 51.476 55.75 52.594 L 55.75 52.594 C 55.75 53.71 54.972 54.625 54.022 54.625 z" stroke-linecap="round" />
</g>
<g transform="matrix(1 0 0 1 -0.83 2.5)" >
<path style="stroke: none; stroke-width: 1; stroke-dasharray: none; stroke-linecap: butt; stroke-dashoffset: 0; stroke-linejoin: miter; stroke-miterlimit: 4; fill: rgb(71,43,41); fill-rule: nonzero; opacity: 1;" transform=" translate(-49.17, -52.5)" d="M 53.832 55 L 44.5 55 C 43.122 55 42 53.879 42 52.5 C 42 51.121 43.122 50 44.5 50 L 53.832 50 C 55.21 50 56.332 51.121 56.332 52.5 C 56.332 53.879 55.21 55 53.832 55 z M 44.5 51 C 43.673 51 43 51.673 43 52.5 C 43 53.327 43.673 54 44.5 54 L 53.832 54 C 54.659 54 55.332 53.327 55.332 52.5 C 55.332 51.673 54.659 51 53.832 51 L 44.5 51 z" stroke-linecap="round" />
</g>
<g transform="matrix(1 0 0 1 -9.5 13)" >
<path style="stroke: none; stroke-width: 1; stroke-dasharray: none; stroke-linecap: butt; stroke-dashoffset: 0; stroke-linejoin: miter; stroke-miterlimit: 4; fill: rgb(71,43,41); fill-rule: nonzero; opacity: 1;" transform=" translate(-40.5, -63)" d="M 37.5 65.5 C 37.224 65.5 37 65.276 37 65 L 37 59 C 37 58.724 37.224 58.5 37.5 58.5 C 37.776 58.5 38 58.724 38 59 L 38 65 C 38 65.276 37.777 65.5 37.5 65.5 z M 46.001 67.5 L 35 67.5 C 34.724 67.5 34.5 67.276 34.5 67 C 34.5 66.724 34.724 66.5 35 66.5 L 46.001 66.5 C 46.277 66.5 46.501 66.724 46.501 67 C 46.501 67.276 46.277 67.5 46.001 67.5 z M 43.5 65.5 C 43.224 65.5 43 65.276 43 65 L 43 59 C 43 58.724 43.224 58.5 43.5 58.5 C 43.776 58.5 44 58.724 44 59 L 44 65 C 44 65.276 43.777 65.5 43.5 65.5 z" stroke-linecap="round" />
</g>
<g transform="matrix(1 0 0 1 -9.5 9)" >
<path style="stroke: none; stroke-width: 1; stroke-dasharray: none; stroke-linecap: butt; stroke-dashoffset: 0; stroke-linejoin: miter; stroke-miterlimit: 4; fill: rgb(71,43,41); fill-rule: nonzero; opacity: 1;" transform=" translate(-40.5, -59)" d="M 37.5 57 L 35 61 L 40 61 z M 43.5 57 L 41 61 L 46 61 z" stroke-linecap="round" />
</g>
</g>
</g>
</svg>